<svg version="1" xmlns="http://www.w3.org/2000/svg" width="1706.667" height="1706.667" viewBox="0 0 1280.000000 1280.000000"><path d="M372.3 135.3c-5.3 3-10.3 13.1-24.3 48.7-1 2.5-2.7 7.6-4 11.5-1.2 3.8-2.4 7.7-2.7 8.5-.3.8-.7 1.9-.8 2.5-.2.5-1 3.5-1.9 6.6-.9 3.1-1.8 6.5-2.1 7.5-.2 1.1-1.2 5.7-2.3 10.4-1.8 7.3-3 13.4-4.7 23.2-.2 1.3-.6 4.5-1 7.3-.3 2.7-.7 6.8-1 9-.3 2.2-.8 6-1.1 8.5-.2 2.5-.7 14.6-.9 27l-.5 22.5-4.5 12.5c-2.6 6.9-5 13.4-5.5 14.5-.5 1.1-2 5.4-3.5 9.5s-3.2 8.8-3.8 10.5c-.6 1.6-1.2 3.4-1.3 4-.9 4.6-6 15.4-10.1 21.6-2.7 4.1-8 12.8-11.8 19.4-6 10.4-8.3 15-15 30-2.1 4.7-9.5 24.1-10 26.2-.2 1-2 7.4-3.9 14.3-2 6.8-3.8 14-4.1 15.8-.3 1.9-.7 3.7-.9 4.1-.3.4-.7 2.7-1 5.1-.3 2.5-.8 5.6-1.1 7-.4 1.4-1 5.4-1.5 9-2.7 19.9-3.3 28.6-3.4 51-.1 11.3-.5 21.1-.9 21.7-.5.7-1 2.3-1.2 3.5-.3 1.3-2.3 11.3-4.4 22.3-2.2 11-4.2 21.6-4.5 23.6-.3 2-.8 4.2-1 5-.3.8-.8 3.2-1.1 5.3-.3 2.1-.7 4.8-1 6-.2 1.2-.7 3.7-.9 5.6-.3 1.9-1.2 7.3-2 12s-1.7 10.1-2 12c-.3 1.9-.7 4.6-1 6-.2 1.4-.7 4.6-1 7.1-.4 2.5-.8 5.7-1.1 7-.2 1.3-.6 4.3-.9 6.5-.3 2.3-3.1 10.2-6.2 17.5-21.4 50.4-24.8 75.7-13.3 100.4 1.5 3.3 2.5 6.3 2.1 6.6-.4.4-5.6 4.4-11.7 9-6 4.5-11.2 8.5-11.5 8.9-.3.3-2.5 2.1-5 4-2.4 1.9-5.2 4.2-6 5-.9.8-4.1 3.6-7.2 6.2-20.6 17.6-60.7 58.2-74.5 75.3C73.9 976.3 73.4 977 65 989c-3.3 4.7-6.3 8.9-6.8 9.5-5.4 7-22.6 36.5-30.9 53-9.8 19.5-11.1 23.6-11.8 36.6-.1 3.6-.8 7.5-1.3 8.5-2.2 4-14.2 41.9-14.2 44.9 0 1.9 2.8 4.5 4.9 4.5.9 0 2.6-.8 3.7-1.8 3.4-3 17.7-13.8 23.4-17.5l5.5-3.6 6.5 2.3c4.8 1.7 8.3 2.2 13.6 2.1 12.3-.4 20.9-4.4 32.4-15.2 16.2-15 32.4-29.2 36.4-31.8 1.9-1.2 29.6-9.7 35.6-10.9 1.4-.3 4.5-1 7-1.7 7.6-1.8 10.1-2.4 15.3-3.3 1.2-.2 5.7-1.1 9.9-2 4.2-.9 9.4-1.8 11.5-2.2 2.1-.3 7.6-1.1 12.3-1.9 4.7-.7 9.2-1.3 10-1.3.8 0 3.1-.3 5-.6 1.9-.4 6-.9 9-1.2 3-.3 6.8-.6 8.6-.9 4.9-.6 23.3-2 41.4-3.2 23.8-1.5 117.4-.8 150.9 1.2 3.5.2 12.5.6 20 1 7.5.3 17 .8 21.1 1 4.1.3 12 .7 17.5 1 5.5.3 13.2.7 17 1 3.9.2 12.1.7 18.2 1 6.2.3 14.1.8 17.5 1 5.6.4 12.1.7 38.3 2 45.3 2.3 67.6 2.9 112.5 2.9 56 0 92.4-1.4 122.5-5 2.2-.2 6.7-.7 10-1 3.3-.3 7.1-.7 8.5-.9 1.4-.3 4.5-.7 7-1 2.5-.3 6.1-.8 8-1.1 1.9-.3 5.1-.7 7-1 5.5-.7 10-1.4 16.2-2.4 3.2-.6 7-1.2 8.5-1.5 4.1-.7 6.3-1.1 22.8-4.5 79.7-16.5 147.7-43.6 205-81.7 18.2-12 17.5-11.5 28.5-20.2 12.9-10.2 14.4-11.6 30.5-27.6 7.7-7.7 15.4-14.7 17-15.5 1.7-.8 8.4-4.8 15-8.9 6.6-4.1 16.1-9.9 21-13 22-13.5 33.2-25.5 41.1-44.1 4.9-11.2 6.4-20.4 6-34.5-.7-20.5-5.2-33.1-17.9-49.6-2-2.7-2.6-4.4-2.3-6.5 2.8-16.1 3.9-51.1 2.2-69.4-.5-4.7-.9-16.2-1.1-25.5-.1-9.4-.5-17.9-.8-19-.3-1.1-1.1-4.3-1.8-7-.7-2.8-3.4-9.3-6.1-14.5-2.7-5.2-6.9-14.7-9.4-21-4.1-10.5-12.4-27.8-17-35.7-6.4-10.7-8.4-13.8-14.5-22.5-13-18.3-32.6-39.1-49-52-1.9-1.5-7.2-5.7-11.7-9.3-7.3-5.6-30-21.2-37.3-25.4-19-11.1-30.8-17.1-47.4-24.1-11.3-4.8-38.3-13.1-47.4-14.6-1.4-.3-4.8-.9-7.6-1.4-2.7-.5-7.5-1.2-10.5-1.6-3-.3-6.6-.7-8-.9-16.6-2.4-73.6-2.4-85.9 0-1 .2-4.2.6-7.2.9-12 1.4-15.3 1.9-30.9 5.1-15 3-17 3.4-19.2 4.1-.9.3-2.6.7-3.7.9-4 .7-28.6 8.5-36.5 11.5-4.4 1.6-8.1 2.8-8.2 2.7-.1-.1 2.9-3.5 6.7-7.6 26.9-28.4 43.4-59.7 50.5-95.6.2-1.1.8-4 1.4-6.5 1.2-5.6 2.9-15.5 3.5-20.6.2-2.2.9-7 1.5-10.8.6-3.8 1.3-9.2 1.5-12.1.3-2.8.8-6.3 1.1-7.6.2-1.3.7-9.2 1.1-17.4.7-18.8-.7-30.9-4.5-38.4-5.1-10.1-9.2-11.3-27.7-7.6-1.1.2-2 .4-2 .5 0 .1-1.1.4-2.5.6-1.4.3-8.8 1.6-16.5 3-7.7 1.5-15.3 2.8-17 3-1.6.2-3.6.6-4.4.9-.8.3-3 .8-5 1.1-9.1 1.4-36.7 8.6-43.6 11.4-1.1.4-5.4 2-9.5 3.5-17.5 6.4-49.6 24.6-65.5 37.2-1.6 1.3-3.5 2.7-4 3.1-10.1 7.3-28.7 24.8-36 33.7-15.5 19-20.1 21-37.3 16.4-19.3-5.2-33-7-57.2-7.4-17.3-.4-16.3-.3-18.4-1.8-1.5-1.1-1.6-1.9-.8-5.3 2.5-9.5 3.7-29.7 2.2-35.4-.5-1.9-1.1-4.6-1.4-6-3.6-19.3-23.8-46.1-39.8-53-1.3-.5-3-1.4-3.8-1.9-2.5-1.5-11.8-5.1-13.2-5.1-.8 0-6.6-5.3-12.9-11.8-14.8-15-25-24.4-36.8-33.8-1.3-1.1-2.8-2.4-3.5-2.9-.6-.6-3.8-3.1-7.1-5.5-3.3-2.5-6.2-4.8-6.6-5.2-1-1.5-12.9-5.8-15.6-5.8-1.6.1-3.8.6-5 1.3zm11.7 10.3c2.2.9 4 2 4 2.4 0 .5.9 1.2 2 1.5 1.7.5 12.9 9.1 15 11.4.3.4 3.9 3.5 8 7 4.1 3.6 8.2 7.2 9.1 8 .9.9 4.9 4.8 9 8.7 11.4 10.8 11.2 10.2 2.2 10.2-12 .1-22.4 2.8-35.4 9.2-21.4 10.6-29.7 19.7-40.2 44-.8 1.9-2.1 5.1-3 7-3.6 8.4-9.7 23.1-9.7 23.5 0 .2-1.1 2.8-2.3 5.7-1.3 2.9-3.4 8-4.7 11.3-3.1 8.1-3.7 8.5-3.4 2.3.4-8.2 1.5-22 1.9-24.8.2-1.4.7-5 1-8 .6-5 3-19.4 4.2-24.5.2-1.1.6-3.3.9-4.8.3-1.5 1.9-7.8 3.5-14s3.1-11.9 3.3-12.7c2.1-8.1 16.1-45.4 19.4-51.4 4.2-7.9 7.5-12.5 9-12.9.9-.3 1.8-.5 1.9-.6.2 0 2.1.6 4.3 1.5zm469.9 65.8c3.7 3.9 5.1 11.6 4.9 27.3-.1 7.8-.5 16.9-.9 20-.4 3.2-1 8-1.3 10.8-.8 6.8-1.4 11.2-3.2 24-1.6 11.4-1.9 13.3-2.9 17.5-.3 1.4-.7 3.6-.9 5.1-.9 6.2-7.1 27.2-10.6 36-9.2 22.9-19.8 38.7-42.7 63.3-6.2 6.8-7 7.3-5 3.7 2.6-4.8 19.1-31.7 25.2-41.1 11.8-18.2 16-30.7 16.9-49.3.7-14.7-3.1-29.1-11.8-44.2-4.4-7.9-13-17.5-20.6-23.3-1.9-1.5-4.1-3.2-4.7-3.9-2.5-2.3-18.9-10-25.1-11.7-9.9-2.7-18.7-3.5-26.2-2.3-1.9.3-5.7.9-8.5 1.2-8.6 1-14.8 2.7-21.5 5.8-6.6 3.1-15.9 9-19.5 12.4-1.1 1-5.8 5-10.5 8.8-25.3 20.6-55.5 49.9-76.3 73.9-2.7 3.1-5.2 5.6-5.5 5.6-.4 0-1.9-1.9-3.4-4.3-4.6-7.1-19.7-21.7-22.5-21.7-.7 0-1.3-.4-1.3-.9s-1.4-1.4-3-2.1c-3.6-1.5-5.3-3.5-2.1-2.5 1.1.3 3.3.8 4.8 1.1 3.1.4 6.9 1.4 15.8 4 9.1 2.7 18.9 2.4 24.9-.6 5.3-2.7 11.8-8.6 18.1-16.5 25-31.6 77.8-66.6 120.5-80 11.6-3.6 22.3-6.1 47-11 .8-.1 3.5-.6 6-1s5.4-.9 6.5-1.1c1-.2 6-1.1 11-1.9 4.9-.9 10.3-1.8 12-2.1 1.6-.3 3.1-.7 3.4-1 .2-.2 2.8-.4 5.6-.4 4.1 0 5.6.5 7.4 2.4zm130.6 197c16.8 1.7 29.4 3.8 43.5 7.1 7.9 1.9 28.9 9.2 30.5 10.6.5.5 1.5.9 2.2.9 2.7 0 35.4 16.3 46.8 23.3 15.4 9.5 46.1 30.8 48.5 33.6.3.3 3.4 3 7 6 10.8 9.1 31.2 30.1 35.2 36.2.9 1.4 2.3 3.3 3 4 4.2 4.6 15.4 23 22.4 37.1 3 5.8 5.4 10.9 5.4 11.3 0 .3-1.2-.2-2.7-1.3-6.1-4.3-22.3-11.9-22.3-10.5 0 .3-.6.1-1.3-.5-.7-.6-2.4-1.3-3.7-1.6-1.4-.2-4.8-1-7.7-1.6-10.2-2.3-23.6-1.7-35.3 1.4-2.5.7-2.5.6-2.8-6.1-.9-21.6-13.9-45.3-32.7-59.9-8.6-6.7-28.7-14.5-40.9-16-12.6-1.5-27.8.1-34.5 3.6-.9.5-5.2 2.3-9.6 4.2-9.4 3.9-14.5 7.1-21.9 13.9-4.6 4.2-5.5 4.7-6.6 3.4-.7-.8-1-1.5-.6-1.5.8 0-5.1-9.7-9.2-15-10-12.7-21.6-20.7-38.2-25.9-13.9-4.3-30.2-5.2-44.2-2.3-23.1 4.8-35.1 13.5-64.3 46.8-3.3 3.7-6.7 7.5-7.6 8.4-.8.9-2.2 2.6-3.1 3.9-1.5 2.1-1.6 1.8-1.6-7.1 0-9.1-2.4-23.1-4.4-25.6-.6-.6-.8-1.2-.4-1.2.3 0-1-3.3-3-7.3-8.9-17.6-19.7-29.3-34.6-37.2l-6.3-3.4 5-2.1c14.6-6.3 23-9.6 32.5-12.7 9.9-3.2 31-8.7 37.5-9.9 1.7-.2 6.6-1.1 11-1.9 7.9-1.4 11.8-2 20.5-3 2.5-.3 6.1-.7 8-1 1.9-.2 8.2-.7 14-1 5.8-.4 10.6-.8 10.8-.9.5-.5 50 .2 55.7.8zm-698.4 31.8c-.6 1.8-1 3.5-.9 3.8.1.3-.4 1.5-1.1 2.8-.7 1.3-1.4 3.1-1.6 4-.1 1-1.7 6.3-3.4 11.8-1.7 5.5-3.3 10.9-3.6 12-.2 1-2 7.3-4 13.9-1.9 6.6-3.8 12.9-4 14-.3 1.1-2.3 8.7-4.6 17-2.2 8.2-5.1 19.3-6.5 24.5l-2.4 9.5.5-7c.6-7.6 1.2-12.6 2-16.5.3-1.4.8-4.5 1.1-7 .8-6 1.2-7.9 1.7-8.8.3-.4.8-2.5 1.1-4.7.8-4.8 4.4-19.2 5.6-22 .5-1.1 1.7-4.9 2.8-8.5 2.4-8 7.9-22.2 12.2-31.5 1.8-3.9 3.6-8.1 4.1-9.4 1.4-3.6 2.3-1.7 1 2.1zM1253 699.1c0 14.4-.6 25.7-1.5 30.4-.2 1.1-.4 3.5-.4 5.4-.1 3.1-.2 3.2-2 2-8.3-6.1-14.2-9.8-17.3-11-2.1-.7-3.8-1.7-3.8-2.1 0-.5 4.7-8.5 10.5-17.8 5.7-9.3 11.2-18.4 12-20.1.9-1.7 1.9-2.9 2.1-2.6.3.3.5 7.4.4 15.8zM222.4 761c4.2 17.4 19.8 37.5 36.4 47 6.5 3.7 7.2 4.6 4.4 5.8-2.2.9-24.6 13.7-28 16-8.4 5.7-23.5 15.3-23.6 15-1.5-2.1-5-11.2-6.1-16.1-1.4-6.1-1.5-24.4 0-31.2 1.9-8.9 7.8-27.1 12-37 .7-1.7 1.5-3.8 1.9-4.8.3-.9.7-1.7.9-1.7.3 0 1.2 3.1 2.1 7zm64.1 57.8c4.4 1 8.7 1.7 9.5 1.7.8 0 3.2 3 5.3 6.8 6.8 12.4 12.7 19.8 21.9 27.2l3.8 3-5.7 7.5c-3.1 4.1-6 7.6-6.5 7.8-.4.2-.8.8-.8 1.4 0 .6-.8 1.8-1.7 2.7-1 .9-3.4 3.6-5.3 6.1-1.9 2.5-4 5.2-4.7 6-8.2 9.8-17.1 21.7-20.3 27-15.1 25.1-16.3 52.5-3.4 79.6 3.7 7.9 10.3 17.2 15.5 21.9 10.2 9.2 25.9 18 36.9 20.6 3 .7 5.8 1.5 6.2 1.9.4.3-4.3.7-10.5.8-18.4.3-51.3 1.8-59.2 2.7-2.2.2-8 .7-13 1.1-4.9.3-9.3.8-9.6 1-.3.1-3.8.6-7.7.9-4 .3-8.3.8-9.5 1.1-1.2.2-4.2.6-6.7.9-2.5.3-7.2 1-10.5 1.6-3.3.5-7.3 1.2-9 1.5-7 1.1-19.3 3.5-22.5 4.4-4.4 1.1-17.1 4-20.7 4.6-1.5.3-3.1.8-3.6 1.1-.5.3-2.6.9-4.6 1.4l-3.6.8 2.5-2.1c5.7-4.6 28.6-20.9 44.5-31.6 9.4-6.3 18.7-13.3 20.8-15.6 2.1-2.2 5.4-7.5 7.4-11.6 3.4-6.9 3.7-8.1 3.7-17 0-8.6-.3-10.1-3.1-16-1.8-3.6-5.2-8.6-7.7-11.2-2.6-2.5-4.6-4.8-4.6-5.1 0-1 15.6.1 18.2 1.3 6.2 2.9 7.3 12.8 2.8 24-3.6 8.9-5.1 14.9-5.3 20.4-.3 14.8 12.2 22 33.5 19.2 6.1-.8 9.2-3.3 8-6.5-1.4-3.6-2.4-3.8-10.1-2.4-9 1.7-15.1 1-18.8-2.1-2.1-1.8-2.7-3.4-3.1-7.7-.4-5.4-.2-6.3 6.5-24.3 1.9-5.2 1.8-14.2-.1-18.6-2.2-5-4.6-7.4-9.6-10-3.9-2-6-2.3-16.5-2.3-6.6.1-12.8-.4-13.8-.9-4.6-2.4-3.6-8.5 3-18.6 3.9-5.9 11.4-16.2 14.4-19.7 8.4-9.5 19.8-23.5 20.8-25.3 1.5-2.7.1-5.8-3.1-6.8-1.7-.5-2.8.1-5.1 2.7-1.7 1.9-4.4 5-6.1 6.9-21.2 23.5-34.2 44.2-35.6 56.5-.4 3.3-.8 5.2-.9 4.3-.2-3.2-4.3-11.3-7.8-15.6-6.9-8.5-20.9-15.5-30.8-15.4h-5l9.1-8.7c16.6-15.7 36.9-32.5 54.9-45.4 9.7-7 27.9-19.3 29.5-20 2-.9 5.4-3 6-3.8.3-.4 2.3-1.6 4.5-2.8 2.2-1.2 5.4-3 7-4.1 1.7-1 5.7-3.3 9-5.1 3.3-1.7 6.9-3.8 8-4.5 2.4-1.7 3.1-1.7 13 .4zm868 108.1c-.6.5-4.8 3.9-9.5 7.5-4.7 3.7-9.4 7.4-10.4 8.3-6.7 5.4-35.1 23.6-51.1 32.6-10.4 5.8-42.5 21.2-42.5 20.3 0-.2 27-16.9 40.5-24.9 1.1-.7 4.2-2.6 7-4.3 2.7-1.7 16.3-10 30-18.4 13.8-8.4 27.5-16.8 30.5-18.6 5.4-3.4 7.3-4.2 5.5-2.5zm-243.6 58.5c4.8 6.3 12.4 14 17.5 17.6 13.2 9.4 30.6 15.8 43.9 16.2 6 .2 4.8.8-8.8 4.6-21.7 6.1-32.9 8.8-52 12.7-3.8.8-8.1 1.7-9.5 2-3.5.7-13.5 2.5-17.1 3-1.6.3-4.3.7-6 .9-1.7.3-4.2.7-5.7 1-1.5.3-4.7.8-7.2 1.1-2.5.3-5.4.7-6.5.9-3.2.6-11.7 1.7-15.6 2.1-6 .5-16.2 1.6-19.9 2-1.9.3-6.9.7-11 1-4.1.3-9.7.7-12.5 1-42.5 3.9-128.5 3.9-200.5.1-5.2-.3-15.1-.8-22-1.1-6.9-.4-15.2-.8-18.5-1-3.3-.2-10.7-.7-16.5-1-5.8-.3-13.4-.7-17-1-3.6-.2-12.1-.6-19-1-6.9-.3-15.2-.8-18.5-1-3.2-.2-11.8-.7-19-1-7.1-.4-15.9-.8-19.5-1-5.8-.4-19.7-.9-47.5-2-4.9-.2-14.3-.4-20.8-.5-6.4-.1-11.7-.6-11.7-1.1 0-.5.8-.9 1.8-.9 7.1-.1 28.4-10.6 36.8-18.2 2.1-1.9 2.2-1.9 5.6 1.4 9 8.5 21.5 15.6 32.3 18.2 19.6 4.8 43.4 3.4 57-3.5 4.7-2.4 20.3-13.6 33.5-24.2 7.9-6.3 15.2-11.8 15.4-11.5 8.7 14.3 17 22.5 31.6 31 14.6 8.6 25.3 11.6 41.4 11.6 5.9-.1 13.4-.6 16.6-1.3 3.3-.7 6-1 6-.8 0 .3.7-.1 1.7-.8.9-.8 1.7-1.2 1.7-.9.2.9 10.2-3.4 15.1-6.5 4.4-2.7 20.1-13.9 23-16.3.6-.4 3.1-2.2 5.7-4l4.6-3.2 2.1 3.3c4.6 7.4 18.7 19 30.8 25.1 12.7 6.5 21.9 8.8 34.8 8.7 17.5-.2 35.4-5.8 49.4-15.4 3.5-2.4 19.8-15.9 26.7-22.2 7.9-7 27.8-22.1 48.7-36.7l8-5.6 2.7 5.6c1.5 3.2 5 8.8 7.9 12.6zm-542.2 55.2c-.3.3-1.2.4-1.9.1-.8-.3-.5-.6.6-.6 1.1-.1 1.7.2 1.3.5zm-341.8 74.3l2.1 2.4-3.3 2.3c-1.7 1.3-4.3 3.2-5.6 4.1-1.3 1-3 2.4-3.7 3-3 3-2.9.6.4-9.3l3.5-10.6 2.2 2.8c1.3 1.6 3.2 4 4.4 5.3z"/></svg>